<svg width="252" height="56" viewBox="0 0 252 56" fill="none" xmlns="http://www.w3.org/2000/svg">
<path fill-rule="evenodd" clip-rule="evenodd" d="M103.696 0.15867C101.487 0.602126 100.065 1.34023 98.6514 2.77712C97.489 3.95868 97.1793 4.45151 96.7392 5.82005C96.2903 7.21625 96.229 7.79411 96.3177 9.80383C96.5123 14.2244 97.8655 16.1709 102.603 18.8453C106.29 20.9266 107.143 22.1223 106.217 23.913C105.762 24.794 104.841 25.0859 103.438 24.7954C102.116 24.5215 98.7757 23.0083 97.7258 22.2073C97.3171 21.8958 96.9244 21.6407 96.8533 21.6407C96.782 21.6407 96.7237 23.5409 96.7237 25.8636V30.0867L97.4531 30.4638C100.144 31.8555 104.374 32.6224 106.982 32.1915C112.212 31.3279 114.982 27.6474 114.74 21.8814C114.571 17.8514 113.262 16.0961 108.203 13.1144C106.538 12.1338 105 11.0617 104.784 10.7324C104.568 10.4027 104.392 9.7284 104.392 9.23374C104.392 6.7241 107.629 6.59061 111.767 8.92949L113.182 9.72932V5.74735V1.7654L112.468 1.39646C110.352 0.301992 106.024 -0.308787 103.696 0.15867ZM219.651 0.26519C217.703 0.760306 216.28 1.56973 215.053 2.88135C213.24 4.82021 212.959 5.67946 212.959 9.30186C212.959 12.3384 212.973 12.4195 213.716 13.9293C214.65 15.8277 216.027 17.0658 219.147 18.8149C221.628 20.2052 222.323 20.7501 222.81 21.6864C223.236 22.5056 223.215 23.1425 222.735 23.9558C221.956 25.2752 220.25 25.1904 216.975 23.6694C215.915 23.177 214.713 22.5191 214.304 22.2073C213.896 21.8958 213.503 21.6407 213.432 21.6407C213.361 21.6407 213.302 23.5501 213.302 25.8839V30.1269L214.79 30.8015C220.065 33.1932 225.8 32.7015 228.766 29.6032C230.662 27.6223 231.52 24.9005 231.299 21.5739C231.036 17.6116 229.617 15.8641 224.154 12.7743C221.673 11.3706 221.076 10.779 220.913 9.55925C220.804 8.748 220.875 8.54707 221.485 7.93652C222.052 7.37009 222.371 7.23979 223.193 7.23979C224.431 7.23979 226.397 7.89697 228.317 8.95212L229.76 9.74555V5.75559V1.7654L229.132 1.44355C226.797 0.247817 222.043 -0.343076 219.651 0.26519ZM141.526 16.0403V31.4699H145.641H149.756V24.4523C149.756 20.5197 149.842 17.5303 149.952 17.6519C150.06 17.7714 151.136 19.772 152.342 22.0978C153.548 24.4237 155.186 27.561 155.982 29.0697L157.429 31.8127L161.25 31.8754L165.071 31.938V16.3887V0.839397H160.959H156.848L156.788 8.42615L156.727 16.0131L153.085 8.31186L149.443 0.610812H145.485H141.526V16.0403ZM1.40355 23.6979V46.5565H9.06116H16.7188V44.4992V42.442H11.1171H5.51534L5.57386 23.6408L5.63238 4.83964H24.3764H43.1204L43.1789 23.6408L43.2374 42.442H37.6357H32.034V44.4992V46.5565H39.5773H47.1207V23.6979V0.839397H24.2621H1.40355V23.6979ZM60.8358 16.1546V31.4699H68.4934H76.151V27.8125V24.1551H72.6079H69.0649V12.4973V0.839397H64.9503H60.8358V16.1546ZM78.4369 16.1546V31.4699H86.6659H94.895V27.8125V24.1551H90.7725H86.6499L86.7151 21.8121L86.7802 19.4691H90.1521H93.524L93.5237 15.9832L93.5235 12.4973H90.0947H86.6659V10.3257V8.15413H90.6662H94.6664V4.49677V0.839397H86.5517H78.4369V16.1546ZM129.64 16.1546V31.4699H133.755H137.869V16.1546V0.839397H133.755H129.64V16.1546ZM167.846 2.49664C168.27 4.02199 168.798 6.03903 170.553 12.8401C171.525 16.6079 172.736 21.2573 173.38 23.6979C174.552 28.1382 175.357 31.2573 175.357 31.362C175.357 31.4214 177.459 31.4699 180.028 31.4699C184.277 31.4699 184.709 31.4337 184.821 31.0698C184.888 30.8497 185.3 29.2811 185.737 27.5839C186.173 25.8867 187.111 22.2864 187.822 19.5834C188.532 16.8804 189.353 13.743 189.646 12.6115C191.705 4.65517 192.557 1.41726 192.662 1.14387C192.762 0.882143 192.058 0.839625 188.479 0.891514L184.175 0.95369L183.895 2.4395C183.741 3.25669 183.088 6.65118 182.445 9.98282C180.241 21.3979 180.173 21.6736 179.841 20.5549C179.733 20.1924 176.533 3.73786 176.173 1.69659L176.022 0.839397H171.704H167.386L167.846 2.49664ZM195.015 16.1546V31.4699H203.245H211.474V27.8125V24.1551H207.351H203.229L203.294 21.8121L203.359 19.4691L206.73 19.4058L210.102 19.3427V15.9199V12.4973H206.673H203.245V10.3257V8.15413H207.245H211.245V4.49677V0.839397H203.13H195.015V16.1546ZM232.046 4.49677V8.15413H235.018H237.99V19.812V31.4699H242.104H246.219V19.812V8.15413H249.076H251.933V4.49677V0.839397H241.99H232.046V4.49677ZM17.741 11.6652C15.8371 12.583 15.3479 13.0822 15.1884 14.2711C14.8574 16.7391 17.715 18.2023 19.5482 16.5032C20.1281 15.9658 20.258 15.4099 20.1629 13.8688C20.1 12.8484 19.6623 10.8972 19.4963 10.8972C19.4074 10.8972 18.6174 11.2428 17.741 11.6652ZM13.0539 16.5055L12.5096 17.0847L17.4715 22.0505L22.4334 27.0163V38.8392V50.6623L21.9191 50.7885C21.6361 50.858 16.9044 50.8857 11.4042 50.85L1.40332 50.7853L1.40355 52.7854V54.7856H24.2621H47.1207V52.7854L47.1209 50.7853L37.2343 50.85C31.797 50.8857 27.1151 50.8576 26.8303 50.7876L26.3125 50.6605L26.3731 43.9986L26.4337 37.3365L27.5014 36.5858C28.0884 36.1728 29.1243 35.4443 29.803 34.9668C30.4817 34.4892 32.699 32.9358 34.7299 31.5144C36.7612 30.0931 38.4726 28.8498 38.5334 28.7515C38.5942 28.653 38.3649 28.2383 38.0239 27.8296L37.4037 27.087L36.8334 27.5286C36.5195 27.7716 35.6971 28.367 35.0056 28.8516C34.3141 29.3362 32.1641 30.8438 30.2277 32.2016C28.2914 33.5591 26.62 34.6701 26.5132 34.6701C26.4067 34.6701 26.3194 30.5555 26.3194 25.5266V16.3832H24.3764H22.4334V20.1549C22.4334 22.2293 22.3552 23.9265 22.2595 23.9265C22.1639 23.9265 20.2877 22.1264 18.0903 19.9263C15.8929 17.7262 13.9833 15.926 13.8466 15.926C13.7101 15.926 13.3533 16.1869 13.0539 16.5055ZM116.153 20.4977V23.6979H121.64H127.126V20.4977V17.2976H121.64H116.153V20.4977ZM13.6445 22.6723C12.0202 23.9121 11.2042 24.8992 11.5322 25.227C12.2623 25.9568 14.5817 27.1267 15.2986 27.1267C16.8326 27.1267 17.9721 25.9959 17.93 24.5149C17.9012 23.497 17.5236 22.8494 16.647 22.315C15.5889 21.6699 14.8412 21.7589 13.6445 22.6723ZM61.0644 41.5276C60.4899 42.1021 60.4835 42.6959 61.0442 43.3881C61.3988 43.8258 61.6859 43.9234 62.5653 43.9049C63.7838 43.8795 64.2646 43.4569 64.2646 42.4113C64.2646 41.1612 62.0439 40.5481 61.0644 41.5276ZM145.334 41.4885C144.876 41.9942 144.844 42.8882 145.263 43.4612C145.482 43.7604 145.884 43.8889 146.655 43.9049C147.534 43.9234 147.821 43.8258 148.176 43.3881C148.736 42.6959 148.73 42.1021 148.155 41.5276C147.547 40.9191 145.87 40.896 145.334 41.4885ZM80.5527 41.5228C79.8216 41.833 79.1245 43.0948 79.1235 44.1099C79.1228 44.8341 79.0095 45.0421 78.4382 45.3672C77.8697 45.6906 77.7539 45.9014 77.7525 46.6136C77.7513 47.376 77.8144 47.4708 78.3226 47.4708H78.894V51.1282V54.7856H80.6084H82.3228V51.1282V47.4708H83.3514H84.3801V46.2136V44.9564H83.3514C82.4815 44.9564 82.3228 44.8871 82.3228 44.5072C82.3228 43.9399 82.9523 43.5938 83.7186 43.7403C84.2557 43.843 84.3364 43.7575 84.605 42.7981C84.7673 42.2179 84.8265 41.6693 84.7362 41.579C84.4814 41.3242 81.1271 41.2789 80.5527 41.5228ZM113.182 48.0423V54.7856H114.782H116.382V48.0423V41.299H114.782H113.182V48.0423ZM101.6 42.4079C97.9055 43.6846 96.0617 47.3332 96.9701 51.5694C97.2954 53.0856 98.7718 54.7538 100.432 55.4802C101.435 55.9194 102.024 56.0069 103.924 55.9996C105.257 55.9943 106.591 55.8586 107.124 55.6739C107.979 55.3776 108.043 55.2935 108.109 54.3778C108.179 53.409 108.173 53.4003 107.538 53.5542C107.185 53.6397 106.658 53.7974 106.367 53.9046C106.076 54.012 105.017 54.0998 104.014 54.0998C101.371 54.0998 100.017 53.3261 99.3408 51.429C98.5766 49.2867 99.1549 46.6557 100.704 45.2282C101.904 44.1214 103.193 43.7175 105.004 43.8802C107.578 44.1113 108.897 45.6239 108.881 48.3257C108.876 49.2805 108.743 49.9825 108.498 50.3565C107.799 51.4235 107.582 50.9106 107.582 48.1959C107.582 46.1439 107.515 45.6195 107.239 45.5077C107.05 45.4314 106.073 45.3182 105.067 45.2561C103.452 45.1562 103.118 45.2067 102.21 45.6883C99.7897 46.9711 99.4016 50.9449 101.567 52.2652C102.455 52.8063 103.906 52.8641 104.724 52.3909C105.759 51.7925 105.912 51.7449 106.062 51.9751C106.338 52.3998 107.205 52.7283 108.051 52.7283C108.72 52.7283 109.07 52.5511 109.758 51.8629C110.809 50.8121 111.217 49.4758 111.066 47.5785C110.791 44.112 108.193 41.9729 104.283 41.9923C103.454 41.9964 102.252 42.1827 101.6 42.4079ZM204.11 43.7563C202.894 44.7306 201.893 45.5793 201.886 45.6422C201.88 45.705 202.27 46.215 202.753 46.7757L203.632 47.7947L204.638 46.933L205.645 46.0714L205.707 50.4285L205.769 54.7856H207.478H209.188V48.3852V41.9848H207.755H206.322L204.11 43.7563ZM214.759 43.6057C213.643 44.5084 212.641 45.3276 212.532 45.4261C212.325 45.6133 213.696 47.6994 214.026 47.6994C214.13 47.6994 214.614 47.3394 215.101 46.8994C215.588 46.4593 216.051 46.0993 216.13 46.0993C216.209 46.0993 216.274 48.0537 216.274 50.4424V54.7856H217.992H219.71L219.649 48.4423L219.588 42.0991L218.187 42.0316L216.786 41.9644L214.759 43.6057ZM195.336 44.0302C195.138 44.5267 194.624 45.2005 194.195 45.5276C193.619 45.9677 193.415 46.2982 193.415 46.7967C193.415 47.3634 193.506 47.4708 193.987 47.4708H194.558V49.9926C194.558 52.9215 194.852 53.8676 195.973 54.551C196.832 55.0747 198.271 55.1529 199.618 54.7495C200.495 54.4868 200.502 54.4754 200.502 53.311V52.1374L199.301 52.147L198.101 52.1568L198.036 49.8138L197.971 47.4708H199.122H200.273V46.2136V44.9564H199.13H197.987V44.0421V43.1277H196.842C195.722 43.1277 195.69 43.1474 195.336 44.0302ZM71.2785 45.059C70.7987 45.23 70.2247 45.5343 70.0032 45.7347C69.466 46.2207 69.3389 46.1953 69.2523 45.585C69.1874 45.1294 69.0292 45.0629 67.8648 45.0021L66.5504 44.9335V49.8596V54.7856H68.2648H69.9792V51.5854C69.9792 48.6899 70.0226 48.3417 70.4364 47.928C70.9843 47.3801 71.8682 47.3353 72.3631 47.8299C72.6564 48.1235 72.7222 48.7939 72.7222 51.4873V54.7856H74.4558H76.1896L76.1119 50.9568C76.0214 46.4991 75.8244 45.8867 74.2501 45.172C73.1238 44.6608 72.4653 44.6357 71.2785 45.059ZM88.6555 45.0417C87.4134 45.3891 86.3018 46.3217 85.8378 47.4064C85.3244 48.606 85.43 51.3047 86.0373 52.5054C87.1764 54.7575 89.9681 55.6288 92.4311 54.5012C94.3096 53.6413 95.1236 52.2044 95.1236 49.7487C95.1236 47.8546 94.2179 46.1638 92.8343 45.4741C91.5055 44.8119 90.0255 44.6588 88.6555 45.0417ZM121.946 44.9468C120.705 45.2424 119.718 45.9695 119.126 47.0253C118.385 48.3463 118.319 50.9609 118.989 52.4503C119.523 53.6356 121.032 54.7008 122.487 54.9188C123.853 55.1239 125.763 54.9111 126.643 54.456C127.282 54.1252 127.354 53.9819 127.354 53.0387C127.354 52.0055 127.344 51.9918 126.726 52.1568C126.38 52.2492 125.393 52.3729 124.532 52.4318C123.14 52.5271 122.907 52.4821 122.418 52.0222C122.116 51.7381 121.868 51.3179 121.868 51.0884C121.868 50.7058 122.115 50.671 124.84 50.671H127.811V49.2922C127.811 46.8354 126.777 45.4421 124.607 44.9767C123.317 44.7001 122.995 44.6965 121.946 44.9468ZM132.183 44.9445C130.41 45.3914 129.449 46.8749 129.892 48.4803C130.218 49.6591 130.734 50.0719 133.365 51.2567C135.308 52.1317 133.385 52.8949 131 52.1957L129.869 51.864V53.1878V54.5115L131.038 54.792C132.477 55.1371 134.78 54.9764 135.775 54.4617C137.269 53.6891 137.865 51.6254 137.012 50.1764C136.734 49.7039 136.037 49.2239 134.726 48.6003C133.689 48.1072 132.84 47.6018 132.84 47.4772C132.84 46.8962 134.451 46.9629 136.149 47.6144C136.402 47.7115 137.183 46.2456 137.183 45.6737C137.183 45.1516 133.494 44.6137 132.183 44.9445ZM155.699 44.9857C155.259 45.1157 154.662 45.4426 154.372 45.7119C153.925 46.1286 153.814 46.1512 153.633 45.8648C153.516 45.6794 153.418 45.3994 153.416 45.2421C153.414 45.0487 153.009 44.9564 152.164 44.9564H150.916L150.85 49.8712L150.784 54.786L152.419 54.7858L154.054 54.7856L154.133 51.7463C154.227 48.1564 154.522 47.3933 155.765 47.5145C156.869 47.6222 157.063 48.2549 157.067 51.7568L157.07 54.7856H158.67H160.27V50.8882C160.27 46.5851 160.111 45.9261 158.919 45.3098C158.011 44.8403 156.653 44.7036 155.699 44.9857ZM176.266 45.0657C174.221 45.7215 173.3 47.2132 173.3 49.871C173.3 52.443 173.982 53.6029 176.047 54.5394C177.291 55.1038 179.153 55.152 180.802 54.6624L181.986 54.3108V53.15C181.986 52.0494 181.96 51.9977 181.472 52.1557C181.189 52.2474 180.236 52.3722 179.353 52.4332C177.614 52.5537 176.832 52.2048 176.685 51.2425C176.618 50.8073 176.761 50.7824 179.674 50.7213L182.733 50.6573L182.615 49.1873C182.464 47.3001 181.856 46.1254 180.697 45.4778C179.509 44.8149 177.602 44.6375 176.266 45.0657ZM187.358 44.8835C185.28 45.3503 184.503 46.1544 184.501 47.84C184.5 49.15 185.149 49.8724 187.222 50.8669C188.242 51.3563 188.958 51.8409 188.958 52.0425C188.958 52.5377 186.997 52.6142 185.694 52.1703C185.118 51.9744 184.615 51.814 184.574 51.814C184.534 51.814 184.501 52.3761 184.501 53.0632C184.501 54.7003 184.826 54.8866 187.701 54.8942C190.968 54.9028 192.044 54.0923 192.044 51.622C192.044 50.1446 191.609 49.6317 189.497 48.6199C187.027 47.4361 187.407 46.4996 190.007 47.3632C190.641 47.5737 191.184 47.7097 191.215 47.6656C191.495 47.2665 191.966 45.6211 191.826 45.5345C191.727 45.4732 191.045 45.2668 190.311 45.0755C188.992 44.7319 188.248 44.6835 187.358 44.8835ZM232.918 45.1932C232.454 45.438 231.916 45.8646 231.723 46.1409C231.326 46.7078 231.312 46.7005 231.004 45.7564C230.794 45.113 230.699 45.0666 229.47 45.0021L228.16 44.9335V49.8596V54.7856H229.875H231.589V52.3052C231.589 48.5861 231.943 47.928 233.947 47.928H234.963L235.07 46.4994C235.212 44.5977 234.669 44.2681 232.918 45.1932ZM60.8358 49.871V54.7856H62.4359H64.036V49.871V44.9564H62.4359H60.8358V49.871ZM144.955 49.871V54.7856H146.67H148.384V49.871V44.9564H146.67H144.955V49.871ZM161.642 45.1358C161.642 45.2346 161.989 46.186 162.413 47.2503C163.14 49.0755 164.839 53.5119 165.145 54.3855C165.261 54.7179 165.571 54.7856 166.974 54.7856H168.664L169.481 52.5569C170.203 50.5853 171.401 47.4299 172.13 45.5754L172.381 44.9372L170.625 45.0039L168.87 45.0707L167.908 48.2709C167.378 50.031 166.888 51.3168 166.819 51.1282C166.749 50.9396 166.373 49.6538 165.983 48.2709C165.592 46.8879 165.221 45.5763 165.156 45.3564C165.059 45.0218 164.762 44.9564 163.341 44.9564C162.407 44.9564 161.642 45.0371 161.642 45.1358ZM236.618 48.6211C236.618 52.6341 236.796 53.4387 237.871 54.2841C239.113 55.261 241.104 55.213 242.336 54.1766C242.722 53.8516 243.071 53.6244 243.111 53.6715C243.152 53.7185 243.306 53.9883 243.453 54.2713C243.681 54.7092 243.906 54.7856 244.969 54.7856H246.219V49.871V44.9564H244.522H242.824L242.75 48.1333C242.685 50.8985 242.618 51.3739 242.23 51.8018C241.921 52.1429 241.571 52.2725 241.087 52.2252C240.108 52.1294 239.847 51.1995 239.831 47.7566L239.818 44.9564H238.218H236.618V48.6211ZM105.12 48.3934C104.974 50.0015 104.478 50.8996 103.736 50.8996C102.936 50.8996 102.667 50.4603 102.667 49.1562C102.667 48.1374 102.756 47.8912 103.269 47.4875C103.6 47.2269 104.181 47.0137 104.558 47.0137H105.245L105.12 48.3934ZM124.383 47.4708C125.243 48.3317 124.99 48.6138 123.354 48.6138C121.721 48.6138 121.542 48.4192 122.365 47.5426C122.976 46.8925 123.776 46.8639 124.383 47.4708ZM178.935 47.3495C179.199 47.5344 179.469 47.8944 179.536 48.1495C179.649 48.5804 179.552 48.6138 178.193 48.6138C176.895 48.6138 176.729 48.5633 176.729 48.1696C176.729 47.6875 177.528 47.0137 178.1 47.0137C178.296 47.0137 178.671 47.1648 178.935 47.3495ZM91.1067 47.6011C91.618 48.1125 91.7632 48.8851 91.6477 50.4815C91.573 51.515 91.4331 51.9587 91.1067 52.1973C90.3791 52.7292 89.5735 52.4826 89.1088 51.5854C88.5287 50.4649 88.704 48.2243 89.4174 47.6466C90.0348 47.1467 90.636 47.1305 91.1067 47.6011ZM138.555 49.9853V51.3568H140.955H143.355V49.9853V48.6138H140.955H138.555V49.9853ZM223.131 52.2711C222.474 52.929 222.54 53.9608 223.277 54.5403C224.089 55.1792 225.205 55.1552 225.835 54.4852C226.913 53.3375 226.153 51.814 224.503 51.814C223.893 51.814 223.436 51.9664 223.131 52.2711Z" fill="white"/>
</svg>
