<svg width="20" height="20" viewBox="0 0 20 20" fill="none" xmlns="http://www.w3.org/2000/svg">
<path fill-rule="evenodd" clip-rule="evenodd" d="M7.33203 18.3327H12.6654C14.0655 18.3327 14.7656 18.3327 15.3003 18.0602C15.7707 17.8205 16.1532 17.4381 16.3929 16.9677C16.6654 16.4329 16.6654 15.7328 16.6654 14.3327V6.66602L11.6654 1.66602H7.33203C5.9319 1.66602 5.23183 1.66602 4.69705 1.9385C4.22665 2.17818 3.8442 2.56063 3.60451 3.03104C3.33203 3.56582 3.33203 4.26588 3.33203 5.66602V14.3327C3.33203 15.7328 3.33203 16.4329 3.60451 16.9677C3.8442 17.4381 4.22665 17.8205 4.69705 18.0602C5.23183 18.3327 5.9319 18.3327 7.33203 18.3327ZM5.83203 8.33268C5.83203 7.87245 6.20513 7.49935 6.66536 7.49935H8.33203C8.79227 7.49935 9.16536 7.87245 9.16536 8.33268C9.16536 8.79292 8.79227 9.16602 8.33203 9.16602H6.66536C6.20513 9.16602 5.83203 8.79292 5.83203 8.33268ZM5.83203 11.666C5.83203 11.2058 6.20513 10.8327 6.66536 10.8327H13.332C13.7923 10.8327 14.1654 11.2058 14.1654 11.666C14.1654 12.1263 13.7923 12.4993 13.332 12.4993H6.66536C6.20513 12.4993 5.83203 12.1263 5.83203 11.666ZM5.83203 14.9993C5.83203 14.5391 6.20513 14.166 6.66536 14.166H13.332C13.7923 14.166 14.1654 14.5391 14.1654 14.9993C14.1654 15.4596 13.7923 15.8327 13.332 15.8327H6.66536C6.20513 15.8327 5.83203 15.4596 5.83203 14.9993ZM11.626 6.6661C11.3965 6.64495 11.185 6.5403 11.0372 6.37469C10.8893 6.20908 10.8169 5.99576 10.8356 5.78068V2.49943L14.9993 6.6661H11.626Z" fill="#97C8E1"/>
</svg>
