<svg width="21" height="24" viewBox="0 0 21 24" fill="none" xmlns="http://www.w3.org/2000/svg">
<path d="M3.90142 2.39019L18.108 10.6151C18.8932 11.0696 19.2858 11.2969 19.4176 11.5935C19.5327 11.8521 19.5327 12.1474 19.4176 12.4061C19.2858 12.7026 18.8932 12.9299 18.108 13.3844L3.90143 21.6093C3.11343 22.0655 2.71944 22.2936 2.39607 22.2599C2.11403 22.2305 1.85773 22.0827 1.69096 21.8534C1.49977 21.5904 1.49977 21.1352 1.49977 20.2246L1.49977 3.77487C1.49977 2.86435 1.49977 2.40908 1.69096 2.14613C1.85773 1.91677 2.11403 1.769 2.39607 1.73959C2.71944 1.70588 3.11344 1.93398 3.90142 2.39019Z" fill="white" stroke="white" stroke-width="2" stroke-linecap="round" stroke-linejoin="round"/>
</svg>
