<svg width="145" height="32" viewBox="0 0 145 32" fill="none" xmlns="http://www.w3.org/2000/svg">
<path d="M38.7483 18.0415V0.471514H42.7685V14.3687H47.4588V18.0415H38.7483Z" fill="#007AB8"/>
<path d="M49.2419 18.0415V0.471514H57.7291V3.97062H53.0388V7.42008H57.3569V10.6958H53.0388V14.4927H58.0269V18.0415H49.2419Z" fill="#007AB8"/>
<path d="M67.6369 4.69029C67.3391 4.34286 66.9917 4.07815 66.5947 3.89616C66.1976 3.69763 65.784 3.59837 65.3538 3.59837C64.9071 3.59837 64.5018 3.73899 64.1378 4.02025C63.7904 4.3015 63.6167 4.76473 63.6167 5.40996C63.6167 5.95592 63.7987 6.38607 64.1627 6.70041C64.5266 6.9982 65.0643 7.32909 65.7757 7.69306C66.1728 7.89159 66.5864 8.13148 67.0165 8.41273C67.4632 8.67744 67.8686 9.00833 68.2325 9.40539C68.5965 9.80245 68.8943 10.2822 69.1259 10.8447C69.3741 11.3907 69.4982 12.0442 69.4982 12.8052C69.4982 13.7482 69.3493 14.5837 69.0515 15.3117C68.7537 16.0231 68.3483 16.6187 67.8355 17.0984C67.3391 17.5617 66.7601 17.9091 66.0983 18.1407C65.4366 18.3889 64.75 18.513 64.0386 18.513C62.9797 18.513 62.0119 18.3144 61.1351 17.9174C60.2748 17.5203 59.5799 17.0571 59.0505 16.5277L61.0854 13.5497C61.4659 13.9468 61.9044 14.2694 62.4007 14.5176C62.897 14.7492 63.4016 14.865 63.9145 14.865C64.3943 14.865 64.7996 14.7078 65.1305 14.3935C65.4614 14.0791 65.6268 13.6407 65.6268 13.0782C65.6268 12.4992 65.4283 12.0442 65.0312 11.7133C64.6342 11.3659 64.0551 11.0019 63.2941 10.6214C62.8143 10.3898 62.3593 10.1333 61.9292 9.85208C61.5156 9.57083 61.1433 9.23167 60.8124 8.83461C60.4981 8.43755 60.2499 7.97431 60.068 7.4449C59.886 6.91548 59.795 6.2868 59.795 5.55886C59.795 4.58275 59.9521 3.74727 60.2665 3.05241C60.5974 2.34101 61.0192 1.76196 61.5321 1.31527C62.0615 0.868571 62.6406 0.537687 63.2693 0.322612C63.9145 0.107538 64.5597 0 65.2049 0C66.1645 0 67.0248 0.15717 67.7858 0.47151C68.5469 0.78585 69.1838 1.216 69.6967 1.76196L67.6369 4.69029Z" fill="#007AB8"/>
<path d="M70.9359 12.6563V9.70318H75.7006V12.6563H70.9359Z" fill="#007AB8"/>
<path d="M77.96 18.0415V0.471514H81.9555V18.0415H77.96Z" fill="#007AB8"/>
<path d="M92.6787 18.0415L88.6088 7.34564H88.5344L88.6337 18.0415H85.0849V0.471514H89.4526L93.4977 11.3162H93.5721L93.4977 0.471514H96.9223V18.0415H92.6787Z" fill="#007AB8"/>
<path d="M107.731 18.0415H102.693L98.4496 0.471514H102.941L105.324 13.3264H105.373L107.731 0.471514H112.049L107.731 18.0415Z" fill="#007AB8"/>
<path d="M113.585 18.0415V0.471514H122.072V3.97062H117.382V7.42008H121.7V10.6958H117.382V14.4927H122.37V18.0415H113.585Z" fill="#007AB8"/>
<path d="M131.98 4.69029C131.682 4.34286 131.335 4.07815 130.938 3.89616C130.541 3.69763 130.127 3.59837 129.697 3.59837C129.25 3.59837 128.845 3.73899 128.481 4.02025C128.133 4.3015 127.96 4.76473 127.96 5.40996C127.96 5.95592 128.142 6.38607 128.506 6.70041C128.87 6.9982 129.407 7.32909 130.119 7.69306C130.516 7.89159 130.929 8.13148 131.36 8.41273C131.806 8.67744 132.212 9.00833 132.576 9.40539C132.939 9.80245 133.237 10.2822 133.469 10.8447C133.717 11.3907 133.841 12.0442 133.841 12.8052C133.841 13.7482 133.692 14.5837 133.394 15.3117C133.097 16.0231 132.691 16.6187 132.178 17.0984C131.682 17.5617 131.103 17.9091 130.441 18.1407C129.78 18.3889 129.093 18.513 128.382 18.513C127.323 18.513 126.355 18.3144 125.478 17.9174C124.618 17.5203 123.923 17.0571 123.393 16.5277L125.428 13.5497C125.809 13.9468 126.247 14.2694 126.744 14.5176C127.24 14.7492 127.745 14.865 128.257 14.865C128.737 14.865 129.143 14.7078 129.473 14.3935C129.804 14.0791 129.97 13.6407 129.97 13.0782C129.97 12.4992 129.771 12.0442 129.374 11.7133C128.977 11.3659 128.398 11.0019 127.637 10.6214C127.157 10.3898 126.702 10.1333 126.272 9.85208C125.859 9.57083 125.486 9.23167 125.155 8.83461C124.841 8.43755 124.593 7.97431 124.411 7.4449C124.229 6.91548 124.138 6.2868 124.138 5.55886C124.138 4.58275 124.295 3.74727 124.609 3.05241C124.94 2.34101 125.362 1.76196 125.875 1.31527C126.405 0.868571 126.984 0.537687 127.612 0.322612C128.257 0.107538 128.903 0 129.548 0C130.508 0 131.368 0.15717 132.129 0.47151C132.89 0.78585 133.527 1.216 134.04 1.76196L131.98 4.69029Z" fill="#007AB8"/>
<path d="M141.536 3.84653V18.0415H137.64V3.84653H134.414V0.471514H144.762V3.84653H141.536Z" fill="#007AB8"/>
<path d="M38.8386 31.7253V24.8943H40.8764V31.7253H38.8386ZM40.9665 23.0396C40.9665 23.3704 40.8633 23.6534 40.657 23.8885C40.4506 24.1149 40.1842 24.2281 39.8574 24.2281C39.5307 24.2281 39.2642 24.1149 39.0578 23.8885C38.8515 23.6534 38.7483 23.3704 38.7483 23.0396C38.7483 22.8741 38.774 22.7217 38.8256 22.5824C38.8859 22.4344 38.9632 22.3081 39.0578 22.2036C39.1523 22.0904 39.2686 22.0034 39.4062 21.9424C39.5437 21.8728 39.6941 21.8379 39.8574 21.8379C40.0209 21.8379 40.1713 21.8728 40.3089 21.9424C40.4465 22.0034 40.5625 22.0904 40.657 22.2036C40.7517 22.3081 40.8248 22.4344 40.8764 22.5824C40.9365 22.7217 40.9665 22.8741 40.9665 23.0396Z" fill="#007AB8"/>
<path d="M44.4149 24.8943V25.8608H44.4406C44.5525 25.5299 44.7501 25.2469 45.034 25.0118C45.3176 24.768 45.6701 24.6461 46.0915 24.6461C46.4783 24.6461 46.7879 24.7288 47.0201 24.8943C47.2522 25.051 47.4327 25.2643 47.5618 25.5343C47.6906 25.8042 47.7766 26.1133 47.8197 26.4616C47.8626 26.8099 47.8842 27.1713 47.8842 27.5457V31.7253H45.8592V27.5326C45.8592 27.2453 45.8163 26.9928 45.7304 26.7751C45.6529 26.5574 45.4939 26.4485 45.2532 26.4485C45.0037 26.4485 44.8104 26.5661 44.6728 26.8012C44.5353 27.0276 44.4665 27.328 44.4665 27.7024V31.7253H42.4415V24.8943H44.4149Z" fill="#007AB8"/>
<path d="M52.5793 23.2877C52.4502 23.2442 52.3128 23.2224 52.1665 23.2224C51.8829 23.2224 51.6894 23.3356 51.5862 23.562C51.4917 23.7797 51.4443 24.0366 51.4443 24.3326V24.8943H52.4761V26.4877H51.4573V31.7253H49.484V26.4877H48.6844V24.8943H49.484V24.3196C49.484 23.9452 49.5227 23.5925 49.6 23.2616C49.6775 22.922 49.8064 22.626 49.9868 22.3735C50.1675 22.1122 50.4083 21.9076 50.7091 21.7596C51.0102 21.6028 51.3842 21.5245 51.8313 21.5245C51.9517 21.5245 52.0934 21.5332 52.2569 21.5506C52.4201 21.568 52.5621 21.5941 52.6825 21.629L52.5793 23.2877Z" fill="#007AB8"/>
<path d="M58.4581 28.3163C58.4581 28.8475 58.3937 29.3394 58.2646 29.7922C58.1357 30.2363 57.9509 30.6194 57.7102 30.9416C57.4779 31.2638 57.1855 31.5163 56.8331 31.6992C56.4891 31.882 56.098 31.9734 55.6595 31.9734C55.2209 31.9734 54.8297 31.882 54.4858 31.6992C54.1418 31.5163 53.8453 31.2638 53.5959 30.9416C53.3551 30.6194 53.1703 30.2363 53.0414 29.7922C52.9123 29.3394 52.8479 28.8475 52.8479 28.3163C52.8479 27.7851 52.9123 27.2932 53.0414 26.8404C53.1703 26.3876 53.3551 26.0001 53.5959 25.6779C53.8366 25.3558 54.129 25.1032 54.4729 24.9204C54.8254 24.7375 55.2209 24.6461 55.6595 24.6461C56.098 24.6461 56.4891 24.7375 56.8331 24.9204C57.1855 25.1032 57.4779 25.3558 57.7102 25.6779C57.9509 26.0001 58.1357 26.3876 58.2646 26.8404C58.3937 27.2932 58.4581 27.7851 58.4581 28.3163ZM56.5235 28.3032C56.5235 28.042 56.5063 27.8026 56.472 27.5849C56.4376 27.3585 56.386 27.1626 56.3172 26.9971C56.2484 26.823 56.1581 26.688 56.0464 26.5922C55.9432 26.4964 55.8143 26.4485 55.6595 26.4485C55.5133 26.4485 55.3844 26.4964 55.2725 26.5922C55.1693 26.688 55.0833 26.823 55.0145 26.9971C54.9457 27.1626 54.8941 27.3585 54.8598 27.5849C54.8254 27.8026 54.8082 28.042 54.8082 28.3032C54.8082 28.5645 54.8254 28.8083 54.8598 29.0347C54.8941 29.2524 54.9457 29.4483 55.0145 29.6224C55.0833 29.7879 55.1693 29.9185 55.2725 30.0143C55.3844 30.11 55.5133 30.1579 55.6595 30.1579C55.8143 30.1579 55.9432 30.11 56.0464 30.0143C56.1581 29.9185 56.2484 29.7879 56.3172 29.6224C56.386 29.4483 56.4376 29.2524 56.472 29.0347C56.5063 28.8083 56.5235 28.5645 56.5235 28.3032Z" fill="#007AB8"/>
<path d="M66.662 26.4616C66.662 26.9144 66.6148 27.3367 66.5203 27.7285C66.4256 28.1117 66.2924 28.4469 66.1204 28.7343C65.9485 29.0129 65.7377 29.2349 65.4885 29.4004C65.2392 29.5571 64.9597 29.6355 64.6502 29.6355C64.375 29.6355 64.1515 29.5615 63.9795 29.4134C63.8075 29.2654 63.713 29.026 63.6958 28.6951H63.6699C63.5755 28.9476 63.4292 29.1696 63.2315 29.3612C63.0423 29.5441 62.7972 29.6355 62.4964 29.6355C62.2728 29.6355 62.0708 29.5789 61.8901 29.4657C61.7182 29.3525 61.5721 29.1957 61.4517 28.9955C61.3313 28.7952 61.2368 28.5601 61.1681 28.2902C61.1078 28.0202 61.0777 27.7329 61.0777 27.4281C61.0777 27.0537 61.1165 26.688 61.1937 26.331C61.2797 25.9653 61.4001 25.6431 61.5549 25.3645C61.7097 25.0771 61.8988 24.8464 62.1224 24.6722C62.3545 24.4981 62.6168 24.411 62.9091 24.411C63.1843 24.411 63.3948 24.4937 63.5411 24.6592C63.6958 24.8159 63.7947 24.9944 63.8378 25.1947H63.8635L63.9538 24.7506H65.0113L64.7146 26.5008C64.6717 26.8055 64.633 27.0842 64.5986 27.3367C64.5642 27.5805 64.547 27.7634 64.547 27.8853C64.547 28.0159 64.5642 28.1334 64.5986 28.2379C64.6417 28.3424 64.7318 28.3947 64.8694 28.3947C65.0758 28.3947 65.2606 28.2336 65.4241 27.9114C65.596 27.5892 65.682 27.1147 65.682 26.4877C65.682 25.4689 65.4497 24.6766 64.9854 24.1106C64.5298 23.5359 63.8979 23.2485 63.0896 23.2485C62.6768 23.2485 62.3029 23.353 61.9676 23.562C61.6322 23.7623 61.3442 24.0366 61.1034 24.3849C60.8713 24.7332 60.6909 25.1424 60.5618 25.6126C60.4329 26.0741 60.3683 26.5704 60.3683 27.1016C60.3683 27.6589 60.4329 28.1726 60.5618 28.6428C60.6909 29.1043 60.8757 29.5049 61.1165 29.8445C61.3657 30.184 61.6666 30.4496 62.0192 30.6412C62.3717 30.824 62.7715 30.9155 63.2187 30.9155C63.6486 30.9155 64.057 30.8284 64.4438 30.6543C64.8393 30.4801 65.1833 30.2406 65.4756 29.9359L66.0432 30.811C65.6476 31.2028 65.2048 31.4945 64.7146 31.6861C64.2331 31.8689 63.7002 31.9604 63.1155 31.9604C62.5049 31.9604 61.9589 31.8428 61.4776 31.6077C61.0046 31.3639 60.6049 31.0287 60.2782 30.602C59.9514 30.1666 59.7019 29.6529 59.53 29.0608C59.358 28.4687 59.272 27.82 59.272 27.1147C59.272 26.4268 59.3623 25.7868 59.543 25.1947C59.7235 24.5938 59.9771 24.0757 60.3038 23.6404C60.6393 23.205 61.039 22.8654 61.5033 22.6216C61.9761 22.3691 62.5049 22.2428 63.0896 22.2428C63.6399 22.2428 64.1343 22.3343 64.5729 22.5171C65.0198 22.7 65.3982 22.9699 65.7077 23.3269C66.0173 23.6839 66.2537 24.128 66.4171 24.6592C66.5804 25.1816 66.662 25.7824 66.662 26.4616ZM63.5927 26.6053C63.5927 26.3266 63.5539 26.0915 63.4766 25.9C63.4078 25.7084 63.2744 25.6126 63.0767 25.6126C62.9564 25.6126 62.8447 25.6692 62.7415 25.7824C62.6468 25.8869 62.5652 26.0262 62.4964 26.2004C62.4276 26.3658 62.376 26.5574 62.3416 26.7751C62.3072 26.9928 62.29 27.2104 62.29 27.4281C62.29 27.7068 62.3288 27.9375 62.406 28.1204C62.492 28.3032 62.634 28.3947 62.8316 28.3947C62.9607 28.3947 63.0724 28.3337 63.1671 28.2118C63.2616 28.0899 63.339 27.9375 63.3991 27.7547C63.4679 27.5718 63.5152 27.3802 63.5411 27.18C63.5755 26.971 63.5927 26.7794 63.5927 26.6053Z" fill="#007AB8"/>
<path d="M67.8957 31.7253V21.851H69.9594V31.7253H67.8957Z" fill="#007AB8"/>
<path d="M73.1084 28.8257C73.1084 29.0173 73.13 29.2001 73.1731 29.3743C73.2247 29.5397 73.2891 29.6877 73.3664 29.8183C73.4439 29.9402 73.5384 30.0404 73.6503 30.1188C73.7619 30.1884 73.8867 30.2232 74.0243 30.2232C74.2478 30.2232 74.4283 30.1492 74.5659 30.0012C74.7034 29.8532 74.811 29.679 74.8883 29.4788L76.3716 30.3277C76.148 30.8328 75.8341 31.2333 75.4301 31.5294C75.0345 31.8254 74.5402 31.9734 73.9468 31.9734C73.5512 31.9734 73.1816 31.8951 72.8376 31.7383C72.5024 31.5816 72.2057 31.3509 71.9477 31.0461C71.6985 30.7326 71.5006 30.3495 71.3545 29.8967C71.217 29.4439 71.1482 28.9215 71.1482 28.3294C71.1482 27.7721 71.2126 27.2671 71.3417 26.8143C71.4793 26.3528 71.6684 25.9653 71.909 25.6518C72.1585 25.3296 72.4508 25.0815 72.786 24.9073C73.1215 24.7332 73.4911 24.6461 73.8952 24.6461C74.3595 24.6461 74.755 24.7375 75.0818 24.9204C75.4085 25.1032 75.675 25.3558 75.8813 25.6779C76.0964 25.9914 76.2512 26.3702 76.3457 26.8143C76.4404 27.2496 76.4876 27.7285 76.4876 28.251V28.8257H73.1084ZM74.6303 27.4934C74.6303 27.1277 74.5746 26.823 74.4627 26.5792C74.351 26.3354 74.1662 26.2134 73.9082 26.2134C73.7706 26.2134 73.6503 26.257 73.5471 26.3441C73.4524 26.4224 73.3708 26.5269 73.302 26.6575C73.2332 26.7794 73.1816 26.9188 73.1472 27.0755C73.1128 27.2235 73.0956 27.3628 73.0956 27.4934H74.6303Z" fill="#007AB8"/>
<path d="M80.8166 26.8142C80.6618 26.6575 80.4942 26.5313 80.3137 26.4355C80.133 26.3397 79.9354 26.2918 79.7203 26.2918C79.557 26.2918 79.4151 26.344 79.2947 26.4485C79.1831 26.553 79.1271 26.6967 79.1271 26.8796C79.1271 27.0537 79.1872 27.1843 79.3076 27.2714C79.4367 27.3498 79.6731 27.4412 80.017 27.5457C80.2147 27.6066 80.4125 27.6894 80.6102 27.7938C80.8081 27.8983 80.9842 28.0333 81.139 28.1987C81.2937 28.3642 81.4185 28.5645 81.513 28.7996C81.6161 29.0259 81.6677 29.2959 81.6677 29.6094C81.6677 30.0273 81.5948 30.3843 81.4485 30.6804C81.3024 30.9764 81.1176 31.2159 80.8941 31.3987C80.6705 31.5816 80.4169 31.7166 80.133 31.8036C79.8579 31.8907 79.5914 31.9342 79.3335 31.9342C78.8863 31.9342 78.4521 31.8515 78.0308 31.6861C77.6181 31.5206 77.2613 31.2899 76.9605 30.9938L77.9664 29.6877C78.1469 29.8793 78.3404 30.036 78.5467 30.1579C78.7616 30.2798 78.9939 30.3408 79.2431 30.3408C79.4323 30.3408 79.5786 30.2842 79.6818 30.171C79.7934 30.0578 79.8494 29.9098 79.8494 29.7269C79.8494 29.5092 79.7634 29.3525 79.5914 29.2567C79.4194 29.1522 79.1615 29.0434 78.8175 28.9302C78.6371 28.8692 78.4564 28.7952 78.2759 28.7081C78.0953 28.6123 77.932 28.4861 77.7857 28.3293C77.6481 28.1726 77.5321 27.9854 77.4376 27.7677C77.3516 27.5413 77.3085 27.267 77.3085 26.9449C77.3085 26.5617 77.3773 26.2308 77.5149 25.9522C77.6525 25.6649 77.8288 25.4298 78.0437 25.2469C78.2672 25.0553 78.5124 24.916 78.7788 24.8289C79.054 24.7332 79.3291 24.6853 79.6043 24.6853C80.017 24.6853 80.4125 24.7593 80.7909 24.9073C81.1692 25.0553 81.5045 25.26 81.7968 25.5212L80.8166 26.8142Z" fill="#007AB8"/>
<path d="M82.3821 28.891V27.3367H84.8583V28.891H82.3821Z" fill="#007AB8"/>
<path d="M85.9812 31.7253V24.8943H88.0187V31.7253H85.9812ZM88.1091 23.0396C88.1091 23.3704 88.0059 23.6534 87.7995 23.8885C87.5932 24.1149 87.3267 24.2281 87 24.2281C86.6732 24.2281 86.4068 24.1149 86.2004 23.8885C85.994 23.6534 85.8908 23.3704 85.8908 23.0396C85.8908 22.8741 85.9165 22.7217 85.9681 22.5824C86.0284 22.4344 86.1057 22.3081 86.2004 22.2036C86.2949 22.0904 86.4109 22.0034 86.5485 21.9424C86.6861 21.8728 86.8367 21.8379 87 21.8379C87.1632 21.8379 87.3139 21.8728 87.4514 21.9424C87.589 22.0034 87.705 22.0904 87.7995 22.2036C87.8942 22.3081 87.9671 22.4344 88.0187 22.5824C88.079 22.7217 88.1091 22.8741 88.1091 23.0396Z" fill="#007AB8"/>
<path d="M91.5574 24.8943V25.8608H91.5831C91.695 25.5299 91.8926 25.2469 92.1763 25.0118C92.4602 24.768 92.8126 24.6461 93.234 24.6461C93.6209 24.6461 93.9304 24.7288 94.1625 24.8943C94.3947 25.051 94.5752 25.2643 94.7043 25.5343C94.8332 25.8042 94.9192 26.1133 94.9622 26.4616C95.0051 26.8099 95.0267 27.1713 95.0267 27.5457V31.7253H93.0018V27.5326C93.0018 27.2453 92.9589 26.9928 92.8729 26.7751C92.7954 26.5574 92.6365 26.4485 92.3957 26.4485C92.1463 26.4485 91.9529 26.5661 91.8154 26.8012C91.6778 27.0276 91.609 27.328 91.609 27.7024V31.7253H89.5841V24.8943H91.5574Z" fill="#007AB8"/>
<path d="M100.005 31.7253H97.5421L95.7882 24.8943H97.9161L98.819 29.5702H98.8706L99.7218 24.8943H101.772L100.005 31.7253Z" fill="#007AB8"/>
<path d="M104.155 28.8257C104.155 29.0173 104.176 29.2001 104.219 29.3743C104.271 29.5397 104.335 29.6877 104.413 29.8183C104.49 29.9402 104.585 30.0404 104.697 30.1188C104.808 30.1884 104.933 30.2232 105.071 30.2232C105.294 30.2232 105.475 30.1492 105.612 30.0012C105.75 29.8532 105.857 29.679 105.935 29.4788L107.418 30.3277C107.194 30.8328 106.88 31.2333 106.476 31.5294C106.081 31.8254 105.587 31.9734 104.993 31.9734C104.598 31.9734 104.228 31.8951 103.884 31.7383C103.549 31.5816 103.252 31.3509 102.994 31.0461C102.745 30.7326 102.547 30.3495 102.401 29.8967C102.263 29.4439 102.195 28.9215 102.195 28.3294C102.195 27.7721 102.259 27.2671 102.388 26.8143C102.525 26.3528 102.715 25.9653 102.955 25.6518C103.205 25.3296 103.497 25.0815 103.832 24.9073C104.168 24.7332 104.537 24.6461 104.942 24.6461C105.406 24.6461 105.801 24.7375 106.128 24.9204C106.455 25.1032 106.721 25.3558 106.928 25.6779C107.143 25.9914 107.298 26.3702 107.392 26.8143C107.486 27.2496 107.534 27.7285 107.534 28.251V28.8257H104.155ZM105.677 27.4934C105.677 27.1277 105.621 26.823 105.509 26.5792C105.397 26.3354 105.212 26.2134 104.954 26.2134C104.817 26.2134 104.697 26.257 104.593 26.3441C104.499 26.4224 104.417 26.5269 104.348 26.6575C104.28 26.7794 104.228 26.9188 104.194 27.0755C104.159 27.2235 104.142 27.3628 104.142 27.4934H105.677Z" fill="#007AB8"/>
<path d="M111.863 26.8142C111.708 26.6575 111.54 26.5313 111.36 26.4355C111.179 26.3397 110.982 26.2918 110.767 26.2918C110.603 26.2918 110.461 26.344 110.341 26.4485C110.229 26.553 110.173 26.6967 110.173 26.8796C110.173 27.0537 110.233 27.1843 110.354 27.2714C110.483 27.3498 110.719 27.4412 111.063 27.5457C111.261 27.6066 111.459 27.6894 111.656 27.7938C111.854 27.8983 112.03 28.0333 112.185 28.1987C112.34 28.3642 112.465 28.5645 112.559 28.7996C112.662 29.0259 112.714 29.2959 112.714 29.6094C112.714 30.0273 112.641 30.3843 112.495 30.6804C112.349 30.9764 112.164 31.2159 111.94 31.3987C111.717 31.5816 111.463 31.7166 111.179 31.8036C110.904 31.8907 110.638 31.9342 110.38 31.9342C109.933 31.9342 109.498 31.8515 109.077 31.6861C108.664 31.5206 108.308 31.2899 108.006 30.9938L109.013 29.6877C109.193 29.8793 109.387 30.036 109.593 30.1579C109.808 30.2798 110.04 30.3408 110.289 30.3408C110.479 30.3408 110.625 30.2842 110.728 30.171C110.84 30.0578 110.896 29.9098 110.896 29.7269C110.896 29.5092 110.81 29.3525 110.638 29.2567C110.466 29.1522 110.208 29.0434 109.864 28.9302C109.683 28.8692 109.503 28.7952 109.322 28.7081C109.142 28.6123 108.978 28.4861 108.832 28.3293C108.694 28.1726 108.578 27.9854 108.484 27.7677C108.398 27.5413 108.355 27.267 108.355 26.9449C108.355 26.5617 108.424 26.2308 108.561 25.9522C108.699 25.6649 108.875 25.4298 109.09 25.2469C109.313 25.0553 109.559 24.916 109.825 24.8289C110.1 24.7332 110.375 24.6853 110.651 24.6853C111.063 24.6853 111.459 24.7593 111.837 24.9073C112.215 25.0553 112.551 25.26 112.843 25.5212L111.863 26.8142Z" fill="#007AB8"/>
<path d="M117.001 31.673C116.889 31.734 116.73 31.7862 116.524 31.8298C116.317 31.8733 116.111 31.8951 115.905 31.8951C115.225 31.8951 114.731 31.7122 114.422 31.3465C114.112 30.9721 113.957 30.4148 113.957 29.6747V26.4877H113.145V24.8943H113.944V23.2485H115.905V24.8943H117.065V26.4877H115.905V29.2045C115.905 29.5353 115.956 29.7792 116.059 29.9359C116.163 30.0839 116.326 30.1579 116.55 30.1579C116.73 30.1579 116.881 30.1275 117.001 30.0665V31.673Z" fill="#007AB8"/>
<path d="M120.012 31.7253V24.9073L118.644 25.9522L117.729 24.3326L120.231 22.4779H122.036V31.7253H120.012Z" fill="#007AB8"/>
<path d="M126.787 31.7253V24.9073L125.42 25.9522L124.505 24.3326L127.007 22.4779H128.812V31.7253H126.787Z" fill="#007AB8"/>
<path d="M133.525 30.6673C133.525 30.9982 133.422 31.2768 133.215 31.5032C133.009 31.7296 132.747 31.8428 132.429 31.8428C132.102 31.8428 131.835 31.7296 131.629 31.5032C131.431 31.2768 131.332 30.9982 131.332 30.6673C131.332 30.3451 131.431 30.0665 131.629 29.8314C131.835 29.5963 132.102 29.4787 132.429 29.4787C132.747 29.4787 133.009 29.5963 133.215 29.8314C133.422 30.0665 133.525 30.3451 133.525 30.6673Z" fill="#007AB8"/>
<path d="M134.963 24.8942H136.936V26.0436H136.95C137.19 25.1381 137.642 24.6853 138.304 24.6853C138.372 24.6853 138.428 24.6896 138.471 24.6983C138.514 24.6983 138.566 24.707 138.626 24.7245L138.497 26.7751C138.428 26.7577 138.359 26.7446 138.291 26.7359C138.231 26.7185 138.153 26.7098 138.059 26.7098C137.887 26.7098 137.736 26.7576 137.607 26.8534C137.478 26.9405 137.366 27.0581 137.272 27.2061C137.186 27.3541 137.117 27.5283 137.066 27.7285C137.022 27.9288 137.001 28.1334 137.001 28.3424V31.7253H134.963V24.8942Z" fill="#007AB8"/>
<path d="M142.789 31.7253V30.7588H142.763C142.651 31.0896 142.453 31.377 142.17 31.6208C141.886 31.8559 141.533 31.9734 141.112 31.9734C140.725 31.9734 140.416 31.8907 140.184 31.7253C139.951 31.5686 139.771 31.3552 139.642 31.0853C139.513 30.8154 139.427 30.5062 139.384 30.1579C139.341 29.8096 139.319 29.4483 139.319 29.0739V24.8943H141.344V29.0739C141.344 29.2219 141.353 29.3612 141.37 29.4918C141.387 29.6224 141.417 29.7356 141.46 29.8314C141.503 29.9272 141.563 30.0056 141.641 30.0665C141.727 30.1275 141.83 30.1579 141.95 30.1579C142.2 30.1579 142.393 30.0447 142.531 29.8183C142.668 29.5832 142.737 29.2785 142.737 28.9041V24.8943H144.762V31.7253H142.789Z" fill="#007AB8"/>
<path d="M26.866 0C26.4988 0.696904 26.2664 1.28404 26.2083 1.68217C26.1977 1.75449 26.1949 1.80791 26.1951 1.84588C26.3558 1.84988 26.6554 1.80229 27.1457 1.61802C27.6292 1.43637 28.249 1.14087 29.0297 0.700673C29.444 0.467053 29.8508 0.233245 30.2495 0H32V0.691585C31.2813 1.12453 30.5335 1.56125 29.7607 1.9971C28.9414 2.45923 28.2488 2.79348 27.6693 3.01127C27.101 3.22482 26.5877 3.34723 26.1445 3.3334C25.6757 3.31878 25.2077 3.14217 24.9287 2.69344C24.6819 2.29642 24.6819 1.83447 24.7356 1.46676C24.8009 1.02094 24.9761 0.516474 25.2086 0H26.866Z" fill="#007AB8"/>
<path d="M16.3477 0H18.4643C18.3306 0.123391 18.1959 0.251394 18.0603 0.383755C16.8635 1.55156 15.6697 2.97904 14.5153 4.37545L14.2969 4.63976C13.2342 5.92619 12.1975 7.18114 11.2636 8.09179C10.7644 8.5785 10.2607 9.00125 9.76626 9.28162C9.28069 9.55697 8.69987 9.75353 8.1014 9.60653C7.86872 9.54939 7.63694 9.4407 7.44639 9.25328C7.25266 9.06268 7.14204 8.8304 7.0931 8.59445C7.00267 8.15853 7.11889 7.69999 7.26715 7.31377C7.57347 6.51583 8.21437 5.53861 8.96611 4.54702C10.105 3.04479 11.6024 1.37636 12.9222 0H15.0047C13.5234 1.48113 11.5447 3.60934 10.1522 5.4462C9.41205 6.42244 8.8826 7.25858 8.65665 7.84719C8.60573 7.97983 8.5761 8.08535 8.56128 8.16565C8.65632 8.15645 8.80713 8.1145 9.0321 7.98693C9.36398 7.79873 9.76142 7.47767 10.2245 7.02615C11.0985 6.17392 12.0859 4.97889 13.1716 3.6649L13.3681 3.42709C14.3113 2.28623 15.3182 1.07803 16.3477 0Z" fill="#007AB8"/>
<path fill-rule="evenodd" clip-rule="evenodd" d="M8.58546 0H10.8568C6.13574 3.6751 4.13319 9.58759 3.86807 14.5299C3.73378 17.0336 4.05051 19.2162 4.63359 20.6696C4.9265 21.3997 5.26371 21.8884 5.59006 22.1595C5.89097 22.4096 6.16951 22.4706 6.46838 22.3949C7.48663 22.1372 8.24076 21.1637 8.81641 19.6987C9.32082 18.415 9.61375 16.9486 9.85974 15.7172C9.88924 15.5695 9.91809 15.4252 9.94651 15.285C10.0936 14.5595 10.5674 14.0517 11.1967 13.8513C11.7715 13.6683 12.4028 13.7614 12.9486 14.0346C12.9615 14.001 12.9746 13.9676 12.9881 13.9343C13.5422 12.5676 14.6022 11.5592 15.757 10.9819C16.8971 10.4119 18.2257 10.2178 19.3289 10.63C19.8917 10.8403 20.3896 11.2086 20.7415 11.7498C21.0917 12.2883 21.2696 12.9545 21.2696 13.7209C21.2696 14.8385 20.8788 15.7048 20.134 16.2576C19.428 16.7815 18.5162 16.9382 17.6294 16.9216C16.4917 16.9004 15.2268 16.5908 14.0806 16.1674C14.1031 16.7952 14.2599 17.4922 14.6003 18.2548C15.0923 19.3568 15.6427 19.944 16.1491 20.2234C16.6368 20.4925 17.1679 20.523 17.7501 20.3355C18.9776 19.9402 20.3342 18.5922 21.311 16.8011C21.7808 15.9397 22.6887 15.4226 23.6404 15.3984C23.9424 15.3908 24.2442 15.3672 24.5395 15.3288C24.2276 14.9082 24.0136 14.4836 23.8927 14.0607C23.6016 13.0443 23.8738 12.1197 24.4606 11.4845C25.0298 10.8683 25.8835 10.5384 26.7352 10.6458C27.6189 10.7573 28.4209 11.3275 28.8785 12.3462C29.1996 13.0607 29.2325 13.7652 28.9732 14.4057C28.7229 15.0236 28.2374 15.4916 27.6908 15.8361C27.6202 15.8806 27.5477 15.9236 27.4734 15.9651C28.7766 16.9053 29.5755 17.8431 29.8615 18.7706C30.0202 19.2856 30.0183 19.7933 29.8543 20.2624C29.6926 20.7252 29.3907 21.1019 29.0258 21.3945C28.3095 21.9691 27.2915 22.272 26.2532 22.3344C25.2022 22.3978 24.0474 22.2209 23.0074 21.747C22.6335 21.5766 22.4684 21.1352 22.639 20.7612C22.8093 20.3872 23.2507 20.2222 23.6246 20.3926C24.422 20.7559 25.3311 20.8989 26.1638 20.8487C27.0094 20.7979 27.6947 20.5542 28.0945 20.2334C28.2881 20.0784 28.3974 19.9202 28.4494 19.7715C28.4991 19.629 28.5129 19.4485 28.4393 19.2091C28.281 18.6961 27.7202 17.9304 26.3382 16.9867C26.1519 16.8594 25.9764 16.731 25.8111 16.6016C25.1157 16.7758 24.3799 16.8685 23.6781 16.8863C23.2279 16.8978 22.8193 17.1441 22.6177 17.5137C21.5611 19.4511 19.9601 21.1874 18.2063 21.7523C17.2979 22.0449 16.3323 22.0243 15.4301 21.5266C14.5464 21.0391 13.8135 20.1434 13.2412 18.8615C12.709 17.6694 12.5247 16.5487 12.6088 15.5332C12.5065 15.4823 12.4067 15.4311 12.3097 15.3796C12.0273 15.2299 11.7866 15.2255 11.6483 15.2695C11.5441 15.3027 11.4473 15.3732 11.4052 15.5808C11.3777 15.7164 11.3493 15.8587 11.3199 16.0067C11.0775 17.2234 10.7582 18.8266 10.2017 20.243C9.58814 21.8045 8.58936 23.3933 6.83366 23.8378C6.01049 24.0462 5.25273 23.8143 4.63901 23.3045C4.05069 22.8158 3.59486 22.0778 3.25225 21.2238C2.56429 19.509 2.24002 17.0944 2.38185 14.4502C2.63567 9.71842 4.39867 4.02034 8.58546 0ZM26.8974 14.5768C26.6845 14.7109 26.4371 14.8308 26.1647 14.9348C25.6704 14.4426 25.4243 14.0026 25.3235 13.651C25.1768 13.1386 25.3167 12.7511 25.5538 12.4944C25.8085 12.2188 26.1907 12.0773 26.5489 12.1225C26.8752 12.1636 27.2577 12.3703 27.5209 12.9562C27.7 13.3547 27.6796 13.6347 27.5935 13.8471C27.4984 14.082 27.2809 14.3351 26.8974 14.5768ZM17.6572 15.4335C16.6294 15.4143 15.407 15.0956 14.3044 14.6598C14.3243 14.6034 14.3453 14.548 14.3674 14.4935C14.7684 13.5046 15.5485 12.7501 16.4225 12.3131C17.3114 11.8688 18.2005 11.7973 18.808 12.0242C19.1004 12.1335 19.3311 12.311 19.4938 12.5612C19.6583 12.8141 19.7812 13.1851 19.7812 13.7209C19.7812 14.4684 19.5391 14.8456 19.2469 15.0624C18.916 15.308 18.3867 15.4472 17.6572 15.4335Z" fill="#007AB8"/>
<path d="M4.75985 0H7.06356C3.35001 2.75178 1.43967 7.17675 1.13955 12.6605C0.829487 18.3259 2.24872 25.0515 5.12133 32H3.51372C1.77552 27.6859 0.575873 23.4296 0 19.4275V9.51391C0.667541 5.72584 2.20872 2.4482 4.75985 0Z" fill="#007AB8"/>
<path d="M0.0899333 0H1.65669C1.203 1.39762 0.643028 2.96142 0 4.52092V0.268121C0.0303826 0.178194 0.0603624 0.0888055 0.0899333 0Z" fill="#007AB8"/>
<path d="M0 31.9381V27.2C0.478627 28.9583 1.02781 30.6171 1.6439 32H0.0253982C0.0169175 31.9794 0.00845139 31.9587 0 31.9381Z" fill="#007AB8"/>
<path d="M9.46195 32H7.73785C6.97404 30.6574 6.27826 29.2414 5.848 28.0881C5.68771 27.6583 5.55853 27.2499 5.47744 26.8857C5.39991 26.5374 5.35047 26.1626 5.40298 25.8288C5.43016 25.6561 5.49133 25.45 5.6306 25.2633C5.78049 25.0623 5.99211 24.9238 6.23921 24.8666C6.67222 24.7662 7.101 24.9387 7.4231 25.1125C8.29525 25.5833 9.12824 26.4701 9.92173 27.4216C10.3148 27.893 10.7166 28.4039 11.1228 28.9203L11.162 28.97C11.584 29.5066 12.0124 30.0502 12.4553 30.5817C12.8692 31.0784 13.2897 31.557 13.7199 32H11.7064C11.5729 31.8454 11.4415 31.6901 11.3119 31.5347C10.8536 30.9847 10.4129 30.4252 9.9922 29.8904L9.95897 29.8481C9.54803 29.3256 9.15779 28.8296 8.77863 28.3748C8.07502 27.5309 7.46801 26.9043 6.9273 26.549L6.93026 26.5624C6.99143 26.8372 7.0964 27.1761 7.2425 27.5677C7.71711 28.8399 8.5648 30.508 9.46195 32Z" fill="#007AB8"/>
<path d="M18.6244 32H16.2349C14.8607 30.8253 13.6481 29.557 12.6862 28.3546C11.8434 27.301 11.1746 26.2753 10.7588 25.3856C10.5513 24.9416 10.396 24.5087 10.321 24.108C10.2481 23.7188 10.2364 23.2824 10.407 22.8883C10.597 22.4493 10.9665 22.1692 11.4228 22.0635C11.8396 21.9669 12.3087 22.0173 12.7899 22.1444C13.7577 22.3995 15.0586 23.0426 16.7285 24.1188C21.8008 27.3872 27.1218 27.5485 31.7546 26.4011C31.8366 26.3808 31.9184 26.36 32 26.3389V27.8733C27.0941 29.0646 21.3757 28.8838 15.9223 25.3698C14.2899 24.318 13.1475 23.7779 12.4103 23.5835C12.0482 23.488 11.8502 23.4941 11.765 23.5121C11.7572 23.559 11.7511 23.6589 11.7839 23.8341C11.8283 24.071 11.9317 24.38 12.1072 24.7555C12.4573 25.5046 13.0517 26.4289 13.8484 27.4246C15.077 28.9605 16.7435 30.6129 18.6244 32Z" fill="#007AB8"/>
<path d="M32 31.2999V32H23.5058C21.1451 31.3604 19.1867 30.4587 17.8719 29.5998C17.5278 29.3749 17.4311 28.9137 17.6559 28.5698C17.8807 28.2257 18.3418 28.1289 18.6859 28.3537C20.6954 29.6666 24.5399 31.173 29.0573 31.367C30.0132 31.408 30.9976 31.3903 32 31.2999Z" fill="#007AB8"/>
<path d="M32 22.4491V24.0619C26.7773 26.1915 22.6175 25.4189 20.0075 23.6903C19.6648 23.4634 19.5711 23.0016 19.798 22.6588C20.025 22.3163 20.4867 22.2224 20.8294 22.4495C23.0143 23.8966 26.8727 24.7234 32 22.4491Z" fill="#007AB8"/>
<path d="M32 16.3414V17.8326C31.9898 17.8321 31.9797 17.8317 31.9696 17.8311C31.5453 17.8089 31.0365 17.6807 30.6994 17.2482C30.1881 16.592 30.116 15.7767 30.2528 14.9826C30.3891 14.1909 30.7461 13.327 31.2233 12.4464C31.4514 12.0254 31.7125 11.5909 32 11.1472V14.2809C31.8624 14.6318 31.7686 14.9509 31.7195 15.2352C31.6259 15.779 31.7085 16.1073 31.8582 16.3131C31.8765 16.3206 31.9188 16.3339 32 16.3414Z" fill="#007AB8"/>
<path d="M32 5.13072C30.8242 5.05105 29.7626 5.74475 29.1124 6.50085C28.6743 7.01029 28.3398 7.62892 28.2234 8.24378C28.1073 8.85765 28.1971 9.60351 28.8174 10.0965L28.8439 10.1176L28.8724 10.1362C29.5407 10.5744 30.3479 10.4374 30.9542 10.2045C31.311 10.0675 31.6667 9.8731 32 9.64438V7.67397C31.9174 7.76844 31.8244 7.86521 31.7213 7.96248C31.3219 8.33934 30.8463 8.65167 30.4207 8.81506C30.0205 8.96875 29.8068 8.94208 29.7193 8.9071C29.6845 8.86313 29.6404 8.76051 29.686 8.5206C29.7432 8.21778 29.9317 7.8306 30.2407 7.47135C30.7591 6.86864 31.4041 6.55115 32 6.63327V5.13072Z" fill="#007AB8"/>
<path d="M32 3.74492C28.4673 5.67557 24.3519 7.48673 20.0846 8.53662C18.8881 8.831 17.9356 8.96606 17.2144 8.93351C16.5297 8.90263 15.8055 8.70392 15.4644 8.05125C15.1428 7.43576 15.3459 6.74473 15.5925 6.22302C15.8595 5.65809 16.2987 5.03589 16.8293 4.39595C17.9292 3.06937 19.5515 1.51496 21.2851 0H23.5751C21.4069 1.81663 19.2799 3.77228 17.9751 5.34596C17.4758 5.94809 17.1272 6.45897 16.9381 6.85899C16.7973 7.15692 16.7869 7.30236 16.7878 7.3517C16.8344 7.37864 16.9661 7.43243 17.2815 7.44665C17.7912 7.46966 18.5814 7.37371 19.7291 7.09134C24.1456 6.00473 28.4116 4.06533 32 2.0427V3.74492Z" fill="#007AB8"/>
<path fill-rule="evenodd" clip-rule="evenodd" d="M6.27532 11.6131C6.52191 11.2997 6.88233 11.006 7.37134 10.9426L7.41007 10.9376L7.44912 10.9366C8.23799 10.9176 8.79293 11.371 9.09217 11.9679C9.37105 12.524 9.44899 13.2223 9.40763 13.9092C9.32454 15.2889 8.73827 16.9571 7.6639 18.137C7.41923 18.4057 6.96926 18.753 6.39996 18.5774C5.9112 18.4265 5.684 17.9769 5.57958 17.7117C5.34179 17.1077 5.2639 16.2121 5.28801 15.3494C5.31269 14.4668 5.4479 13.4958 5.71641 12.7059C5.85009 12.3126 6.02977 11.9251 6.27532 11.6131ZM6.50929 17.1874C6.50929 17.1874 6.51205 17.1847 6.51736 17.1812C6.51192 17.1859 6.50929 17.1874 6.50929 17.1874ZM7.00579 17.2551C7.01127 17.2616 7.0136 17.2661 7.0136 17.2661C7.0136 17.2661 7.01073 17.2633 7.00579 17.2551ZM6.85973 16.771C6.79558 16.4209 6.76042 15.9415 6.77581 15.391C6.79771 14.6073 6.91882 13.7932 7.1256 13.1849C7.22955 12.879 7.34225 12.664 7.445 12.5334C7.49344 12.4718 7.52875 12.4421 7.54944 12.4282C7.62155 12.4402 7.68711 12.4862 7.7617 12.635C7.87821 12.8674 7.95497 13.2717 7.92196 13.8197C7.86471 14.7702 7.49347 15.9036 6.85973 16.771Z" fill="#007AB8"/>
</svg>
