<svg width="48" height="62" viewBox="0 0 48 62" fill="none" xmlns="http://www.w3.org/2000/svg">
<path d="M32.6566 46.7203C29.2417 50.3474 25.8993 53.8974 24 58C22.1007 53.8974 18.7583 50.3474 15.3434 46.7203C9.76847 40.799 4 34.6721 4 25.6C4 13.6706 12.9543 4 24 4C35.0457 4 44 13.6706 44 25.6C44 34.6721 38.2315 40.799 32.6566 46.7203Z" fill="#007AB8" stroke="#007AB8" stroke-width="5" stroke-linecap="round" stroke-linejoin="round"/>
<path fill-rule="evenodd" clip-rule="evenodd" d="M15.0001 23.322V32.6441H18.0151H21.03V31.8051V30.9661H18.8245H16.619L16.642 23.2987L16.6651 15.6314H24.045H31.4249L31.448 23.2987L31.471 30.9661H29.2655H27.06V31.8051V32.6441H30.0299H32.9999V23.322V14H24H15.0001V23.322ZM21.4325 18.4149C20.6829 18.7892 20.4903 18.9928 20.4275 19.4776C20.2972 20.4841 21.4222 21.0808 22.144 20.3879C22.3724 20.1688 22.4235 19.9421 22.386 19.3136C22.3613 18.8974 22.1889 18.1017 22.1236 18.1017C22.0886 18.1017 21.7776 18.2426 21.4325 18.4149ZM19.5871 20.3889L19.3728 20.6251L21.3264 22.6502L23.28 24.6753V29.4969V34.3185L23.0775 34.3699C22.9661 34.3983 21.1031 34.4096 18.9376 34.395L15 34.3686L15.0001 35.1843V36H24H32.9999V35.1843L33 34.3686L29.1074 34.395C26.9666 34.4096 25.1233 34.3981 25.0111 34.3696L24.8073 34.3177L24.8311 31.6009L24.855 28.884L25.2754 28.5779C25.5065 28.4094 25.9144 28.1123 26.1816 27.9176C26.4488 27.7229 27.3218 27.0893 28.1214 26.5097C28.9212 25.9301 29.595 25.423 29.6189 25.3829C29.6429 25.3428 29.5526 25.1737 29.4183 25.007L29.1741 24.7041L28.9496 24.8842C28.826 24.9833 28.5022 25.2262 28.23 25.4238C27.9577 25.6214 27.1112 26.2362 26.3488 26.7899C25.5864 27.3436 24.9283 27.7966 24.8863 27.7966C24.8444 27.7966 24.81 26.1186 24.81 24.0678V20.339H24.045H23.28V21.8771C23.28 22.7231 23.2492 23.4153 23.2115 23.4153C23.1739 23.4153 22.4352 22.6811 21.57 21.7839C20.7049 20.8867 19.953 20.1525 19.8992 20.1525C19.8455 20.1525 19.705 20.2589 19.5871 20.3889ZM19.8196 22.9038C19.1801 23.4094 18.8588 23.8119 18.9879 23.9456C19.2754 24.2432 20.1886 24.7203 20.4709 24.7203C21.0748 24.7203 21.5235 24.2592 21.5069 23.6552C21.4956 23.2401 21.3469 22.976 21.0018 22.7581C20.5852 22.495 20.2908 22.5312 19.8196 22.9038Z" fill="white"/>
</svg>
